<svg width="44" height="43" viewBox="0 0 44 43" fill="none" xmlns="http://www.w3.org/2000/svg">
<path fill-rule="evenodd" clip-rule="evenodd" d="M22.2502 41.6431C33.341 41.6431 42.3319 32.6522 42.3319 21.5614C42.3319 10.4706 33.341 1.47968 22.2502 1.47968C11.1593 1.47968 2.16846 10.4706 2.16846 21.5614C2.16846 32.6522 11.1593 41.6431 22.2502 41.6431ZM16.8824 38.7166C18.5775 39.2464 20.3805 39.5319 22.2502 39.5319C24.1075 39.5319 25.899 39.2502 27.5843 38.7271V34.3341C27.5848 33.6255 27.4441 32.9238 27.1704 32.2701C26.8967 31.6164 26.4956 31.0238 25.9903 30.5269C31.8893 29.4894 34.3577 25.8956 34.3577 21.6199C34.3577 19.5448 33.6674 17.6244 32.3118 16.0848C33.0777 13.7036 32.2844 11.6684 32.1036 11.2047C32.0948 11.182 32.0874 11.1631 32.0817 11.1481C29.8226 10.9431 27.4797 12.6249 27.0069 12.9847C25.6138 12.6082 24.0323 12.4032 22.2584 12.4032C20.4929 12.4032 18.9157 12.5998 17.5351 12.9722C17.3384 12.8174 14.8115 10.8594 12.3807 11.077C12.3762 11.0887 12.3705 11.103 12.3639 11.1196C12.1894 11.558 11.3535 13.6588 12.1757 16.0974C10.837 17.6328 10.155 19.5364 10.155 21.6073C10.155 25.8747 12.6067 29.4643 18.4889 30.5186C17.7861 31.2005 17.2757 32.0791 17.0372 33.0623C15.9453 33.3342 13.7906 33.6103 12.6862 31.9745C11.1591 29.7195 9.84125 28.8869 8.54848 29.5522C8.2615 29.8833 8.63265 30.1329 9.16038 30.4878C9.6328 30.8055 10.2307 31.2076 10.5943 31.8281C10.65 31.9199 10.7025 32.0788 10.7694 32.2811C11.1591 33.4607 12.0361 36.1152 16.8824 35.5474V38.7166Z" fill="#928A97"/>
</svg>
