<svg width="1440" height="72" viewBox="0 0 1440 72" fill="none" xmlns="http://www.w3.org/2000/svg">
<path d="M590.403 41.1591C593.312 41.1591 595.663 38.8075 595.653 35.9091C595.643 33.0107 593.312 30.6591 590.403 30.6591C587.515 30.6591 585.163 33.0107 585.153 35.9091C585.143 38.8075 587.515 41.1591 590.403 41.1591ZM590.403 40.0057C588.141 40.0057 586.297 38.1612 586.307 35.9141C586.317 33.652 588.151 31.8125 590.403 31.8125C592.665 31.8125 594.49 33.642 594.5 35.9141C594.51 38.1712 592.675 40.0057 590.403 40.0057ZM587.5 35.9091C587.5 37.5398 588.822 38.8622 590.453 38.8622C591.865 38.8622 592.949 37.8679 593.138 36.5455H591.935C591.795 37.2266 591.219 37.7088 590.453 37.7088C589.459 37.7088 588.653 36.9034 588.653 35.9091C588.653 34.9148 589.459 34.1094 590.453 34.1094C591.219 34.1094 591.9 34.5916 592.034 35.2727H593.237C593.048 33.9503 591.865 32.956 590.453 32.956C588.822 32.956 587.5 34.2784 587.5 35.9091ZM601.802 41H608.225V39.9062H603.492V39.8267L605.779 37.3807C607.529 35.5064 608.046 34.6314 608.046 33.5028C608.046 31.9318 606.774 30.679 604.984 30.679C603.199 30.679 601.842 31.892 601.842 33.6818H603.015C603.015 32.5234 603.766 31.7528 604.944 31.7528C606.048 31.7528 606.893 32.429 606.893 33.5028C606.893 34.4425 606.341 35.1385 605.163 36.4261L601.802 40.1051V41ZM613.6 41.1392C615.847 41.1392 617.139 39.2351 617.139 35.9091C617.139 32.608 615.827 30.679 613.6 30.679C611.372 30.679 610.06 32.608 610.06 35.9091C610.06 39.2351 611.352 41.1392 613.6 41.1392ZM613.6 40.0455C612.118 40.0455 611.253 38.5589 611.253 35.9091C611.253 33.2642 612.128 31.7528 613.6 31.7528C615.071 31.7528 615.946 33.2642 615.946 35.9091C615.946 38.5589 615.081 40.0455 613.6 40.0455ZM619.029 41H625.452V39.9062H620.719V39.8267L623.006 37.3807C624.756 35.5064 625.273 34.6314 625.273 33.5028C625.273 31.9318 624 30.679 622.21 30.679C620.426 30.679 619.068 31.892 619.068 33.6818H620.242C620.242 32.5234 620.992 31.7528 622.171 31.7528C623.274 31.7528 624.119 32.429 624.119 33.5028C624.119 34.4425 623.568 35.1385 622.389 36.4261L619.029 40.1051V41ZM630.767 30.8182H629.673C629.608 30.9226 628.877 32.3295 627.306 32.3295V33.3636C628.475 33.3636 629.31 32.8864 629.454 32.608H629.534V41H630.767V30.8182ZM637.642 41H638.816V36.2273C638.816 35.1087 639.631 34.3182 640.546 34.3182C641.436 34.3182 642.057 34.8999 642.057 35.7699V41H643.25V36.0284C643.25 35.044 643.867 34.3182 644.941 34.3182C645.776 34.3182 646.492 34.7607 646.492 35.8892V41H647.665V35.8892C647.665 34.0945 646.7 33.2642 645.338 33.2642C644.244 33.2642 643.444 33.7663 643.051 34.5568H642.972C642.594 33.7415 641.928 33.2642 640.923 33.2642C639.929 33.2642 639.193 33.7415 638.875 34.5568H638.776V33.3636H637.642V41ZM650.292 43.8636C651.351 43.8636 652.097 43.3018 652.54 42.1136L655.791 33.3835L654.508 33.3636L652.4 39.4489H652.321L650.213 33.3636H648.94L651.764 41.0398L651.545 41.6364C651.118 42.7997 650.591 42.9091 649.736 42.6903L649.437 43.7244C649.557 43.7841 649.895 43.8636 650.292 43.8636ZM657.502 41H658.735V37.2812H660.963C663.334 37.2812 664.403 35.8395 664.403 34.0398C664.403 32.2401 663.334 30.8182 660.943 30.8182H657.502V41ZM658.735 36.1875V31.9119H660.903C662.559 31.9119 663.19 32.8168 663.19 34.0398C663.19 35.2628 662.559 36.1875 660.923 36.1875H658.735ZM669.25 41.1591C671.319 41.1591 672.711 39.5881 672.711 37.2216C672.711 34.8352 671.319 33.2642 669.25 33.2642C667.182 33.2642 665.79 34.8352 665.79 37.2216C665.79 39.5881 667.182 41.1591 669.25 41.1591ZM669.25 40.1051C667.679 40.1051 666.963 38.7528 666.963 37.2216C666.963 35.6903 667.679 34.3182 669.25 34.3182C670.821 34.3182 671.537 35.6903 671.537 37.2216C671.537 38.7528 670.821 40.1051 669.25 40.1051ZM674.502 41H675.675V36.1676C675.675 35.1385 676.49 34.3778 677.604 34.3778C677.897 34.3778 678.116 34.4325 678.28 34.517L678.678 33.5227C678.439 33.3537 678.126 33.2443 677.703 33.2443C676.779 33.2443 675.988 33.7614 675.715 34.517H675.635V33.3636H674.502V41ZM683.674 33.3636H682.044V31.5341H680.87V33.3636H679.717V34.358H680.87V39.1307C680.87 40.4631 681.944 41.0994 682.938 41.0994C683.376 41.0994 683.654 41.0199 683.813 40.9602L683.575 39.9062C683.475 39.9261 683.316 39.9659 683.058 39.9659C682.541 39.9659 682.044 39.8068 682.044 38.8125V34.358H683.674V33.3636ZM688.84 33.3636H687.129V32.5881C687.129 31.8324 687.448 31.4347 688.223 31.4347C688.561 31.4347 688.76 31.5142 688.879 31.554L689.218 30.5398C689.039 30.4602 688.681 30.3409 688.104 30.3409C687.01 30.3409 685.956 30.9972 685.956 32.3097V33.3636H684.723V34.358H685.956V41H687.129V34.358H688.84V33.3636ZM693.272 41.1591C695.34 41.1591 696.732 39.5881 696.732 37.2216C696.732 34.8352 695.34 33.2642 693.272 33.2642C691.204 33.2642 689.812 34.8352 689.812 37.2216C689.812 39.5881 691.204 41.1591 693.272 41.1591ZM693.272 40.1051C691.701 40.1051 690.985 38.7528 690.985 37.2216C690.985 35.6903 691.701 34.3182 693.272 34.3182C694.843 34.3182 695.559 35.6903 695.559 37.2216C695.559 38.7528 694.843 40.1051 693.272 40.1051ZM698.523 30.8182V39.3295C698.523 40.4183 699.08 41.0597 700.194 41.0597C700.532 41.0597 700.865 41 701.069 40.9403L700.83 39.9261C700.716 39.9609 700.611 39.9957 700.333 40.0057C699.816 40.0206 699.696 39.7521 699.696 39.0114V30.8182H698.523ZM702.146 41H703.319V33.3636H702.146V41ZM702.743 32.0909C703.2 32.0909 703.578 31.733 703.578 31.2955C703.578 30.858 703.2 30.5 702.743 30.5C702.285 30.5 701.907 30.858 701.907 31.2955C701.907 31.733 702.285 32.0909 702.743 32.0909ZM708.571 41.1591C710.639 41.1591 712.031 39.5881 712.031 37.2216C712.031 34.8352 710.639 33.2642 708.571 33.2642C706.502 33.2642 705.11 34.8352 705.11 37.2216C705.11 39.5881 706.502 41.1591 708.571 41.1591ZM708.571 40.1051C707 40.1051 706.284 38.7528 706.284 37.2216C706.284 35.6903 707 34.3182 708.571 34.3182C710.142 34.3182 710.858 35.6903 710.858 37.2216C710.858 38.7528 710.142 40.1051 708.571 40.1051ZM718.177 36.7045C718.177 39.2102 718.853 41.2983 720.066 43.0682H721.1C720.146 41.7557 719.39 39.071 719.39 36.7045C719.39 34.3381 720.146 31.6534 721.1 30.3409H720.066C718.853 32.1108 718.177 34.1989 718.177 36.7045ZM723.408 41L724.433 38.1165H728.549L729.573 41H730.866L727.127 30.8182H725.854L722.116 41H723.408ZM724.82 37.0227L726.451 32.429H726.531L728.161 37.0227H724.82ZM732.293 30.8182V39.3295C732.293 40.4183 732.849 41.0597 733.963 41.0597C734.301 41.0597 734.634 41 734.838 40.9403L734.599 39.9261C734.485 39.9609 734.381 39.9957 734.102 40.0057C733.585 40.0206 733.466 39.7521 733.466 39.0114V30.8182H732.293ZM739.117 41.1591C740.669 41.1591 741.802 40.3835 742.16 39.2301L741.026 38.9119C740.728 39.7074 740.037 40.1051 739.117 40.1051C737.74 40.1051 736.791 39.2152 736.736 37.5795H742.279V37.0824C742.279 34.2386 740.589 33.2642 738.998 33.2642C736.93 33.2642 735.558 34.8949 735.558 37.2415C735.558 39.5881 736.91 41.1591 739.117 41.1591ZM736.736 36.5653C736.816 35.3771 737.656 34.3182 738.998 34.3182C740.271 34.3182 741.086 35.2727 741.086 36.5653H736.736ZM744.064 33.3636V41.5568C744.064 42.3324 743.746 42.7699 743.03 42.7699H742.811V43.8636H743.05C744.521 43.8636 745.237 42.9688 745.237 41.5568V33.3636H744.064ZM744.641 32.0909C745.098 32.0909 745.476 31.733 745.476 31.2955C745.476 30.858 745.098 30.5 744.641 30.5C744.183 30.5 743.806 30.858 743.806 31.2955C743.806 31.733 744.183 32.0909 744.641 32.0909ZM750.27 41.1591C751.741 41.1591 752.239 40.2443 752.497 39.8267H752.636V41H753.77V33.3636H752.597V34.5767H752.497C752.239 34.179 751.781 33.2642 750.29 33.2642C748.361 33.2642 747.028 34.7955 747.028 37.2017C747.028 39.6278 748.361 41.1591 750.27 41.1591ZM750.429 40.1051C748.957 40.1051 748.202 38.8125 748.202 37.1818C748.202 35.571 748.938 34.3182 750.429 34.3182C751.861 34.3182 752.616 35.4716 752.616 37.1818C752.616 38.9119 751.841 40.1051 750.429 40.1051ZM757.255 36.4062C757.255 35.0739 758.08 34.3182 759.204 34.3182C760.293 34.3182 760.954 35.0291 760.954 36.2273V41H762.127V36.1477C762.127 34.1989 761.088 33.2642 759.542 33.2642C758.388 33.2642 757.673 33.7812 757.315 34.5568H757.215V33.3636H756.082V41H757.255V36.4062ZM767.155 41.1591C768.626 41.1591 769.123 40.2443 769.382 39.8267H769.521V41H770.655V30.8182H769.481V34.5767H769.382C769.123 34.179 768.666 33.2642 767.175 33.2642C765.246 33.2642 763.913 34.7955 763.913 37.2017C763.913 39.6278 765.246 41.1591 767.155 41.1591ZM767.314 40.1051C765.842 40.1051 765.086 38.8125 765.086 37.1818C765.086 35.571 765.822 34.3182 767.314 34.3182C768.746 34.3182 769.501 35.4716 769.501 37.1818C769.501 38.9119 768.726 40.1051 767.314 40.1051ZM772.966 41H774.14V36.1676C774.14 35.1385 774.955 34.3778 776.069 34.3778C776.362 34.3778 776.581 34.4325 776.745 34.517L777.143 33.5227C776.904 33.3537 776.591 33.2443 776.168 33.2443C775.243 33.2443 774.453 33.7614 774.18 34.517H774.1V33.3636H772.966V41ZM781.209 41.1591C783.278 41.1591 784.67 39.5881 784.67 37.2216C784.67 34.8352 783.278 33.2642 781.209 33.2642C779.141 33.2642 777.749 34.8352 777.749 37.2216C777.749 39.5881 779.141 41.1591 781.209 41.1591ZM781.209 40.1051C779.638 40.1051 778.922 38.7528 778.922 37.2216C778.922 35.6903 779.638 34.3182 781.209 34.3182C782.78 34.3182 783.496 35.6903 783.496 37.2216C783.496 38.7528 782.78 40.1051 781.209 40.1051ZM790.557 30.8182V41H791.711V33.2642H791.81L794.992 41H796.105L799.287 33.2642H799.387V41H800.54V30.8182H799.069L795.608 39.2699H795.489L792.029 30.8182H790.557ZM805.955 41.1591C808.024 41.1591 809.416 39.5881 809.416 37.2216C809.416 34.8352 808.024 33.2642 805.955 33.2642C803.887 33.2642 802.495 34.8352 802.495 37.2216C802.495 39.5881 803.887 41.1591 805.955 41.1591ZM805.955 40.1051C804.384 40.1051 803.669 38.7528 803.669 37.2216C803.669 35.6903 804.384 34.3182 805.955 34.3182C807.526 34.3182 808.242 35.6903 808.242 37.2216C808.242 38.7528 807.526 40.1051 805.955 40.1051ZM814.528 33.3636H812.897V31.5341H811.724V33.3636H810.57V34.358H811.724V39.1307C811.724 40.4631 812.798 41.0994 813.792 41.0994C814.229 41.0994 814.508 41.0199 814.667 40.9602L814.428 39.9062C814.329 39.9261 814.17 39.9659 813.911 39.9659C813.394 39.9659 812.897 39.8068 812.897 38.8125V34.358H814.528V33.3636ZM819.614 33.3636H817.983V31.5341H816.81V33.3636H815.656V34.358H816.81V39.1307C816.81 40.4631 817.884 41.0994 818.878 41.0994C819.315 41.0994 819.594 41.0199 819.753 40.9602L819.514 39.9062C819.415 39.9261 819.256 39.9659 818.997 39.9659C818.48 39.9659 817.983 39.8068 817.983 38.8125V34.358H819.614V33.3636ZM824.18 41.1591C825.652 41.1591 826.149 40.2443 826.407 39.8267H826.547V41H827.68V33.3636H826.507V34.5767H826.407C826.149 34.179 825.691 33.2642 824.2 33.2642C822.271 33.2642 820.939 34.7955 820.939 37.2017C820.939 39.6278 822.271 41.1591 824.18 41.1591ZM824.339 40.1051C822.868 40.1051 822.112 38.8125 822.112 37.1818C822.112 35.571 822.848 34.3182 824.339 34.3182C825.771 34.3182 826.527 35.4716 826.527 37.1818C826.527 38.9119 825.751 40.1051 824.339 40.1051ZM832.498 36.7045C832.498 34.1989 831.821 32.1108 830.608 30.3409H829.574C830.529 31.6534 831.284 34.3381 831.284 36.7045C831.284 39.071 830.529 41.7557 829.574 43.0682H830.608C831.821 41.2983 832.498 39.2102 832.498 36.7045ZM835.919 41.0795C836.411 41.0795 836.814 40.6768 836.814 40.1847C836.814 39.6925 836.411 39.2898 835.919 39.2898C835.427 39.2898 835.024 39.6925 835.024 40.1847C835.024 40.6768 835.427 41.0795 835.919 41.0795Z" fill="#D9DBE1"/>
<path d="M0 0V-1H-1V0H0ZM1440 0H1441V-1H1440V0ZM1440 72V73H1441V72H1440ZM0 72H-1V73H0V72ZM0 1H1440V-1H0V1ZM1439 0V72H1441V0H1439ZM1440 71H0V73H1440V71ZM1 72V0H-1V72H1Z" fill="#0A0A0A"/>
</svg>
