<svg width="43" height="43" viewBox="0 0 43 43" fill="none" xmlns="http://www.w3.org/2000/svg">
<path d="M21.4914 0.997845C10.1342 0.997845 0.927673 10.2044 0.927673 21.5615C0.927673 32.9187 10.1342 42.1252 21.4914 42.1252C32.8485 42.1252 42.055 32.9187 42.055 21.5615C42.055 10.2044 32.8485 0.997845 21.4914 0.997845ZM16.4575 30.0847H12.2934V16.6841H16.4575V30.0847ZM14.3498 15.039C13.0345 15.039 12.1841 14.1072 12.1841 12.9548C12.1841 11.7788 13.0602 10.8748 14.4033 10.8748C15.7464 10.8748 16.5689 11.7788 16.5946 12.9548C16.5946 14.1072 15.7464 15.039 14.3498 15.039ZM31.6661 30.0847H27.5019V22.6583C27.5019 20.9296 26.8979 19.7558 25.392 19.7558C24.2417 19.7558 23.5584 20.5505 23.2564 21.3152C23.145 21.5872 23.1172 21.9728 23.1172 22.3562V30.0826H18.9509V20.9575C18.9509 19.2845 18.8973 17.8858 18.8416 16.6819H22.4596L22.6502 18.5434H22.7337C23.2821 17.6694 24.6252 16.3799 26.8722 16.3799C29.6119 16.3799 31.6661 18.2156 31.6661 22.1613V30.0847Z" fill="#928A97"/>
</svg>
