<svg width="42" height="41" viewBox="0 0 42 41" fill="none" xmlns="http://www.w3.org/2000/svg">
<path fill-rule="evenodd" clip-rule="evenodd" d="M21.0093 40.6428C32.1001 40.6428 41.091 31.6519 41.091 20.5611C41.091 9.47027 32.1001 0.479382 21.0093 0.479382C9.91844 0.479382 0.927551 9.47027 0.927551 20.5611C0.927551 31.6519 9.91844 40.6428 21.0093 40.6428ZM30.0292 16.5487C30.0292 16.3479 30.0292 16.143 30.0166 15.9464C30.9245 15.2895 31.7152 14.4654 32.3469 13.5366C31.5102 13.9006 30.6065 14.1599 29.6694 14.2603C30.6358 13.6872 31.3638 12.7793 31.711 11.7041C30.8157 12.2313 29.8116 12.6245 28.7615 12.8212C27.9122 11.9175 26.7073 11.3569 25.3686 11.3569C22.532 11.3569 20.1724 13.9131 20.8292 17.0718C18.9809 16.9796 17.1727 16.4994 15.5221 15.6626C13.8715 14.8257 12.4154 13.6509 11.2486 12.2145C10.8428 12.9007 10.6169 13.6914 10.6169 14.5574C10.6174 15.3224 10.8066 16.0754 11.1679 16.7498C11.5291 17.4241 12.0512 17.9989 12.6878 18.4231C11.9305 18.3938 11.2068 18.1805 10.5918 17.8332V17.8918C10.5896 18.9645 10.9589 20.0049 11.6369 20.8362C12.3149 21.6675 13.2598 22.2384 14.3111 22.452C13.5747 22.6403 12.9304 22.6403 12.215 22.5357C12.8007 24.3765 14.5161 25.7153 16.5577 25.7571C14.9637 27.0039 12.9639 27.7402 10.7884 27.7402C10.4035 27.7402 10.0437 27.7235 9.66716 27.6816C11.7255 28.9995 14.1688 29.7651 16.8045 29.7651C25.3518 29.7651 30.0292 22.6905 30.0292 16.5488V16.5487Z" fill="#928A97"/>
</svg>
